<svg width="66" height="72" viewBox="0 0 66 72" fill="none" xmlns="http://www.w3.org/2000/svg">
<path d="M52.8004 57.6001H36.0004C34.0204 57.6001 32.4004 59.2201 32.4004 61.2001C32.4004 63.1801 34.0204 64.8001 36.0004 64.8001H52.8004C54.7804 64.8001 56.4004 63.1801 56.4004 61.2001C56.4004 59.2201 54.7804 57.6001 52.8004 57.6001ZM52.8004 62.4001H36.0004C35.3404 62.4001 34.8004 61.8601 34.8004 61.2001C34.8004 60.5401 35.3404 60.0001 36.0004 60.0001H52.8004C53.4604 60.0001 54.0004 60.5401 54.0004 61.2001C54.0004 61.8601 53.4604 62.4001 52.8004 62.4001Z" fill="#FEA789"/>
<path d="M64.74 53.86C64.68 53.26 64.16 52.8 63.54 52.8H61.2V49.2C61.2 48.54 60.66 48 60 48H58.8V46.8C58.8 45.28 57.84 43.92 56.4 43.4V39.3C56.4 37.48 54.92 36 53.1 36H52.5C52 36 51.6 35.6 51.6 35.1V34.34C51.6 31.94 49.66 30 47.24 29.98H45.6C44.94 29.98 44.4 30.52 44.4 31.18V35.38C44.4 37.04 43.06 38.38 41.4 38.38H36C34.02 38.38 32.4 40 32.4 41.98V43.38C30.96 43.9 30 45.24 30 46.78V47.98H28.8C28.14 47.98 27.6 48.52 27.6 49.18V52.78H26.36C25.74 52.78 25.24 53.24 25.16 53.84L24 64.28V27.6C24 26.94 23.46 26.4 22.8 26.4H21.6V19.2C21.6 19.12 21.6 19.04 21.58 18.96L20.38 12.96C20.26 12.4 19.78 12 19.2 12H18V7.2H21.6C22.26 7.2 22.8 6.66 22.8 6V1.2C22.8 0.54 22.26 0 21.6 0H13.2C13.04 0 12.9 0.02 12.76 0.08L6.76 2.48C6.3 2.66 6 3.1 6 3.6V12H4.8C4.22 12 3.74 12.4 3.62 12.96L2.42 18.96C2.4 19.04 2.4 19.12 2.4 19.2V26.4H1.2C0.54 26.4 0 26.94 0 27.6V68.4C0 70.38 1.62 72 3.6 72H20.4C22.38 72 24 70.38 24 68.4V66.54C24.2 67.78 24.76 68.96 25.58 69.9C26.66 71.2 28.26 71.96 29.94 72H59.94C61.64 71.96 63.22 71.2 64.3 69.9C65.56 68.46 66.16 66.56 65.92 64.66L64.74 53.86ZM8.4 4.42L13.44 2.4H20.4V4.8H16.8C16.14 4.8 15.6 5.34 15.6 6V12H8.4V4.42ZM4.8 19.32L5.78 14.4H18.22L19.2 19.32V26.4H4.8V19.32ZM21.6 68.4C21.6 69.06 21.06 69.6 20.4 69.6H3.6C2.94 69.6 2.4 69.06 2.4 68.4V33.6H21.6V68.4ZM21.6 31.2H2.4V28.8H21.6V31.2ZM32.4 46.8C32.4 46.14 32.94 45.6 33.6 45.6H39.6V43.2H34.8V42C34.8 41.34 35.34 40.8 36 40.8H41.4C44.38 40.8 46.8 38.38 46.8 35.4V32.4H47.26C48.34 32.4 49.2 33.28 49.22 34.36V35.12C49.22 36.94 50.7 38.42 52.52 38.42H53.12C53.62 38.42 54.02 38.82 54.02 39.32V43.2H45.62V45.6H55.22C55.88 45.6 56.42 46.14 56.42 46.8V48H32.4V46.8ZM30 50.4H58.8V52.8H30V50.4ZM62.5 68.32C61.88 69.1 60.94 69.56 59.94 69.6H29.94C28.94 69.58 28 69.1 27.38 68.32C26.56 67.4 26.18 66.16 26.32 64.92L27.4 55.18H62.46L63.54 64.96C63.7 66.18 63.32 67.42 62.5 68.32Z" fill="#FEA789"/>
<path d="M5.9998 64.8H10.7998C11.4598 64.8 11.9998 64.26 11.9998 63.6V37.2C11.9998 36.54 11.4598 36 10.7998 36H5.9998C5.3398 36 4.7998 36.54 4.7998 37.2V63.6C4.7998 64.26 5.3398 64.8 5.9998 64.8ZM7.1998 38.4H9.5998V62.4H7.1998V38.4Z" fill="#FEA789"/>
</svg>
