<svg width="68" height="68" viewBox="0 0 68 68" fill="none" xmlns="http://www.w3.org/2000/svg">
<g clip-path="url(#clip0)">
<path d="M67.3787 30.7239L58.0995 19.7271C60.8443 13.6531 60.3839 6.42811 56.8776 0.637482C56.488 0.0176905 55.6735 -0.194809 55.0537 0.194774C54.6995 0.407274 54.4693 0.779149 54.4339 1.16873C51.4412 13.3875 41.9849 22.8083 29.7485 25.7302C23.2672 27.2885 17.3526 30.6 12.6422 35.3104C8.07345 39.8792 4.81512 45.5812 3.20366 51.85C2.31824 52.3281 1.45054 52.8594 0.600536 53.426C-0.0192559 53.8333 -0.178631 54.6479 0.228661 55.2677C0.476577 55.6573 0.901577 55.8698 1.34429 55.8698C1.5922 55.8698 1.85783 55.7989 2.07033 55.6573C5.31095 53.4792 8.90574 51.9208 12.713 51C17.1047 49.9552 21.213 48.1135 24.9141 45.5281C25.5162 45.1031 25.6578 44.2885 25.2505 43.6864C24.8255 43.0844 24.011 42.9427 23.4089 43.35C19.9735 45.7406 16.1839 47.4406 12.111 48.4146C10.163 48.875 8.26824 49.5125 6.44429 50.2739C10.0568 39.3302 19.0172 31.025 30.386 28.2979C32.3339 27.8375 34.2287 27.2 36.0526 26.4385C35.0078 29.5906 33.5026 32.5479 31.5724 35.275C31.1474 35.8771 31.2891 36.7094 31.8912 37.1344C32.1214 37.2937 32.387 37.3823 32.6526 37.3823C33.0599 37.3823 33.4849 37.1875 33.7328 36.8156C36.3182 33.1854 38.1776 29.1833 39.2755 24.8802C42.286 23.2333 45.0485 21.1791 47.4922 18.7354C51.3703 14.8573 54.3099 10.1469 56.0807 4.99373C57.8339 9.63332 57.6214 14.875 55.3724 19.3021C55.1245 19.7802 55.1953 20.3469 55.5495 20.7541L65.3422 32.3531L61.5172 34.8854C60.9151 35.275 60.738 36.0719 61.1099 36.6739L62.5797 39.1C62.9339 39.6844 63.0047 40.3927 62.7922 41.0302C62.5797 41.6854 62.1016 42.1989 61.4641 42.4646C61.0391 42.6417 60.738 43.0135 60.6672 43.4739C60.5964 43.9167 60.7557 44.3771 61.0922 44.6781C61.6412 45.1562 61.8891 45.8469 61.8005 46.5729C61.712 47.2989 61.287 47.901 60.6318 48.2375L60.5432 48.2729C60.1005 48.5031 59.8349 48.9635 59.8349 49.4594V53.9042C59.8349 56.2417 57.9224 58.1542 55.5849 58.1542H47.7932C44.3755 58.1542 41.0641 59.1281 38.1953 60.9698L31.0943 65.5385C30.4745 65.9281 30.2974 66.7604 30.687 67.3802C30.9349 67.7698 31.3776 67.9823 31.8026 67.9823C32.0505 67.9823 32.2985 67.9114 32.5287 67.7698L39.6297 63.201C42.0735 61.625 44.8891 60.8104 47.7932 60.8104H55.5849C59.3922 60.8104 62.4912 57.7114 62.4912 53.9042V50.2031C63.5537 49.4239 64.262 48.2375 64.4214 46.9094C64.5453 45.9 64.3505 44.8906 63.8724 44.0229C64.5099 43.4385 65.0058 42.7125 65.2714 41.8625C65.7318 40.4812 65.5547 38.976 64.811 37.7364L64.0141 36.4083L66.7943 34.5844C67.4141 34.1771 67.8391 33.5219 67.9453 32.7781C68.0693 32.0344 67.8568 31.2906 67.3787 30.7239Z" fill="#FEA789"/>
<path d="M0.672362 25.3767C0.884862 25.5007 1.09736 25.5538 1.32757 25.5538C1.78799 25.5538 2.2484 25.3059 2.47861 24.8809C3.57653 22.9153 4.40882 20.808 4.94007 18.6299C6.85257 10.6611 12.9797 4.53402 20.9307 2.63923C21.639 2.46214 22.0817 1.75381 21.9047 1.04548C21.7276 0.337144 21.0192 -0.105565 20.3109 0.0715186C15.9547 1.11631 11.9703 3.34756 8.80049 6.51735C5.6307 9.68714 3.39945 13.6715 2.35465 18.0278C1.89424 19.9757 1.15049 21.8528 0.176528 23.6059C-0.195347 24.208 0.0348617 25.0226 0.672362 25.3767Z" fill="#FEA789"/>
<path d="M28.7578 39.2947C28.4036 39.2947 28.0672 39.4363 27.8193 39.6843C27.5714 39.9322 27.4297 40.2686 27.4297 40.6228C27.4297 40.977 27.5714 41.3134 27.8193 41.5613C28.0672 41.8093 28.4036 41.9509 28.7578 41.9509C29.112 41.9509 29.4484 41.8093 29.6964 41.5613C29.9443 41.3134 30.0859 40.977 30.0859 40.6228C30.0859 40.2686 29.9443 39.9322 29.6964 39.6843C29.4484 39.4363 29.112 39.2947 28.7578 39.2947Z" fill="#FEA789"/>
</g>
<defs>
<clipPath id="clip0">
<rect width="68" height="68" fill="white"/>
</clipPath>
</defs>
</svg>
