<svg width="68" height="70" viewBox="0 0 68 70" fill="none" xmlns="http://www.w3.org/2000/svg">
<g clip-path="url(#clip0)">
<path d="M43.5638 44.181C43.5299 43.5723 43.4451 42.9636 43.3604 42.3549C43.3434 42.2027 43.3095 42.0675 43.2925 41.9153C43.1908 41.3235 43.0721 40.7317 42.9195 40.1568C42.9025 40.123 42.9025 40.0892 42.8855 40.0385C42.7329 39.4805 42.5634 38.9395 42.3768 38.3984C42.3259 38.28 42.292 38.1617 42.2412 38.0433C42.0207 37.4684 41.8003 36.9105 41.5289 36.3525L41.495 36.2849C41.2237 35.7269 40.9354 35.1858 40.6132 34.6448C40.5793 34.594 40.5454 34.5433 40.5284 34.4926C38.6292 31.3139 35.9329 28.6931 32.711 26.867C30.6252 25.7341 29.2008 23.6713 28.8616 21.3211C31.117 21.3042 32.9145 19.4781 32.8975 17.2293C32.8975 14.9974 31.0661 13.1883 28.8107 13.2052H28.4377L28.285 12.7486C27.7763 11.21 27.6407 9.55299 27.912 7.94671C28.302 5.63028 27.2676 3.29695 25.3005 1.99502C23.3165 0.709994 20.7728 0.709994 18.7888 1.99502C16.8047 3.28004 15.7703 5.63028 16.1604 7.94671C16.4317 9.55299 16.296 11.1931 15.7873 12.7486L15.6347 13.2052H15.2616C13.0062 13.1883 11.1748 14.9974 11.1579 17.2293C11.1409 19.4781 12.9554 21.3042 15.1938 21.3211C14.8716 23.6713 13.4302 25.7341 11.3444 26.867C8.12245 28.6931 5.42619 31.3308 3.52694 34.4926L3.44215 34.6448C3.11996 35.1858 2.83168 35.7269 2.56036 36.2849C2.5434 36.3018 2.5434 36.3356 2.52644 36.3525C2.27208 36.9105 2.03467 37.4684 1.81422 38.0433C1.76335 38.1617 1.72944 38.28 1.67856 38.3984C1.49203 38.9395 1.3055 39.4974 1.16984 40.0554C1.15288 40.0892 1.15288 40.123 1.13592 40.1568C0.983302 40.7317 0.864599 41.3235 0.762853 41.9153C0.728938 42.0675 0.711981 42.2027 0.695023 42.3549C0.610235 42.9636 0.525447 43.5554 0.491532 44.181L0.050634 51.3163C-0.152857 54.5626 0.559362 57.809 2.1025 60.6834C2.13642 60.751 2.18729 60.8356 2.22121 60.9032C2.40774 61.2414 2.61123 61.5796 2.81472 61.9177C2.88255 62.0023 2.93343 62.1037 3.00126 62.1882C3.34041 62.6955 3.71348 63.1858 4.1035 63.6424C4.25612 63.8283 4.40874 64.0143 4.57831 64.2003C4.64614 64.2849 4.71398 64.3694 4.79876 64.4539C4.93442 64.5892 5.07009 64.7076 5.18879 64.8428C5.34141 64.995 5.49403 65.1472 5.6636 65.2994C5.90101 65.5192 6.15537 65.7559 6.40974 65.9588C6.44365 65.9757 6.46061 66.0095 6.49452 66.0264C7.49502 66.8549 8.59727 67.5651 9.76734 68.1399L9.7843 68.1568C10.8865 68.7148 12.0566 69.1375 13.2436 69.4419C13.3793 69.4757 13.515 69.5095 13.6506 69.5433C13.9389 69.6109 14.2272 69.6617 14.5155 69.7124C14.8037 69.7631 15.0751 69.7969 15.3634 69.8477C15.5838 69.8815 15.8042 69.8984 16.0247 69.9322C16.5504 69.9829 17.093 70.0167 17.6357 70.0167H26.3858C26.9284 70.0167 27.4541 69.9829 27.9968 69.9322C28.2172 69.9153 28.4377 69.8815 28.6581 69.8477C28.9464 69.8139 29.2177 69.7631 29.506 69.7124C29.7943 69.6617 30.0826 69.6109 30.3708 69.5433C30.5065 69.5095 30.6422 69.4757 30.7778 69.4419C31.9818 69.1375 33.1519 68.6979 34.2541 68.1568H34.2711C35.4412 67.582 36.5434 66.8549 37.5439 66.0264C37.5778 66.0095 37.5948 65.9757 37.6287 65.9588C37.883 65.7559 38.1205 65.5192 38.3748 65.2994C38.5274 65.1472 38.697 64.995 38.8496 64.8428C38.9853 64.7076 39.121 64.5892 39.2397 64.4539C39.3244 64.3694 39.3753 64.2849 39.4601 64.2003C39.6127 64.0312 39.7653 63.8283 39.9349 63.6593C40.3249 63.1858 40.698 62.6955 41.0372 62.2052C41.105 62.1206 41.1559 62.0361 41.2237 61.9346C41.4441 61.5965 41.6307 61.2752 41.8342 60.9201C41.8681 60.8525 41.919 60.768 41.9529 60.7003C43.496 57.8259 44.2082 54.5796 44.0047 51.3332L43.5638 44.181ZM31.3713 29.2003C31.49 29.268 31.5918 29.3525 31.7105 29.4201H27.1489V24.7704C28.0816 26.6472 29.5569 28.1858 31.3713 29.2003ZM18.8397 7.5071C18.687 6.57714 18.9414 5.61338 19.5519 4.88632C20.1793 4.19309 21.0781 3.8042 22.0277 3.8042C22.9604 3.8042 23.8591 4.19309 24.5035 4.88632C25.114 5.61338 25.3853 6.56024 25.2327 7.5071C24.9105 9.41772 25.0461 11.3622 25.5888 13.2052H18.4835C19.0262 11.3622 19.1449 9.40082 18.8397 7.5071ZM13.888 17.2631C13.888 16.5192 14.4985 15.9105 15.2446 15.9105H28.8107C29.5569 15.9105 30.1673 16.5192 30.1673 17.2631C30.1673 18.0071 29.5569 18.6158 28.8107 18.6158H15.2446C14.4985 18.6158 13.888 18.0071 13.888 17.2631ZM19.0092 29.437V21.3211H24.4357V29.437H19.0092ZM24.4357 32.1424V39.7003C24.4357 40.7486 24.1813 41.78 23.7234 42.7269L21.7225 46.7172L19.7215 42.7269C19.2466 41.78 19.0092 40.7486 19.0092 39.7003V32.1424H24.4357ZM12.684 29.2003C14.1424 28.3718 15.3634 27.2221 16.296 25.8356V29.4201H12.3449C12.4636 29.3525 12.5653 29.268 12.684 29.2003ZM38.6801 60.8525C38.6461 60.9032 38.6122 60.9709 38.5614 61.0216C38.3409 61.3259 38.0865 61.6134 37.8491 61.9008H31.2018V64.6061H34.8985C33.5589 65.553 32.0835 66.2631 30.5235 66.7197L30.4387 66.7366C29.8621 66.8887 29.2855 67.024 28.692 67.1085C28.5564 67.1254 28.4377 67.1424 28.319 67.1593C27.6746 67.2438 27.0302 67.2945 26.3858 67.2945H17.6357C16.9913 67.2945 16.3469 67.2438 15.7195 67.1593C15.5838 67.1424 15.4651 67.1254 15.3294 67.1085C14.7529 67.024 14.1763 66.8887 13.5998 66.7366L13.515 66.7197C12.2262 66.3477 10.9883 65.8066 9.83517 65.0965H9.81821C9.25861 64.7583 8.71597 64.3694 8.20724 63.9467L8.15637 63.9129C7.13891 63.0675 6.24016 62.1037 5.47707 61.0385C5.44315 60.9709 5.39228 60.9201 5.35836 60.8525C4.9853 60.3283 4.64615 59.7704 4.35787 59.1955H39.6636C39.3923 59.7535 39.0531 60.3114 38.6801 60.8525ZM41.2746 53.5312C41.2576 53.751 41.2407 53.9709 41.2067 54.1907C41.1728 54.4781 41.122 54.7655 41.0711 55.053C41.0541 55.1713 41.0202 55.2897 41.0033 55.4081C40.9354 55.7631 40.8506 56.1013 40.7489 56.4564V56.4733H3.30649C3.20475 56.1351 3.11996 55.78 3.05213 55.4419C3.03517 55.3235 3.00126 55.2052 2.9843 55.0699C2.93343 54.7825 2.88255 54.495 2.84864 54.2076C2.81472 53.9878 2.79777 53.768 2.78081 53.5482C2.76385 53.3283 2.74689 53.1085 2.74689 52.8887C2.72994 52.4153 2.72994 51.9588 2.76385 51.5023L3.20475 44.367C3.25562 43.6568 3.34041 42.9636 3.47607 42.2704C3.50999 42.0675 3.56086 41.8646 3.59477 41.6786C3.69652 41.1713 3.83218 40.6641 3.9848 40.1568C4.03567 39.9709 4.08654 39.7849 4.15437 39.5989C4.37482 38.9564 4.61223 38.3308 4.90051 37.7052C4.96834 37.5699 5.03617 37.4515 5.104 37.3163C5.34141 36.8428 5.59577 36.3694 5.86709 35.9129C6.00275 35.6762 6.15537 35.4564 6.30799 35.2197C6.52844 34.8815 6.7828 34.5433 7.03717 34.2052C7.20674 33.9854 7.37632 33.7486 7.56285 33.5288C7.95288 33.0554 8.37682 32.5989 8.81772 32.1593L8.83467 32.1424H16.313V39.7003C16.313 41.1713 16.6521 42.6254 17.3135 43.9274L19.3145 47.9008C19.7723 48.8139 20.705 49.3887 21.7394 49.3887C22.7738 49.3887 23.7065 48.8139 24.1643 47.9008L26.1653 43.9274C26.8267 42.6085 27.1658 41.1713 27.1658 39.7003V32.1424H35.2716L35.2885 32.1593C35.7294 32.5989 36.1534 33.0554 36.5434 33.5288C36.7299 33.7486 36.8995 33.9854 37.0691 34.2052C37.3235 34.5433 37.5609 34.8815 37.7983 35.2197C37.9509 35.4395 38.1035 35.6762 38.2392 35.9129C38.5105 36.3694 38.7648 36.8259 39.0023 37.3163C39.0701 37.4515 39.1379 37.5699 39.2057 37.7052C39.494 38.3139 39.7314 38.9564 39.9519 39.5989C40.0197 39.7849 40.0706 39.9709 40.1215 40.1568C40.2741 40.6641 40.3928 41.1713 40.5115 41.6786C40.5454 41.8815 40.5963 42.0844 40.6302 42.2704C40.7658 42.9636 40.8506 43.6738 40.9015 44.367L41.3424 51.5023C41.3763 51.9757 41.3763 52.4322 41.3594 52.8887C41.3085 53.0916 41.2915 53.3114 41.2746 53.5312Z" fill="#FEA789"/>
<path d="M63.7602 12.1739H63.3871L63.2345 11.7174C62.7258 10.1787 62.5901 8.52174 62.8614 6.91546C63.2515 4.59903 62.2171 2.2657 60.25 0.963768C58.2659 -0.321256 55.7223 -0.321256 53.7383 0.963768C51.7542 2.24879 50.7368 4.58213 51.1268 6.91546C51.3981 8.52174 51.2624 10.1618 50.7537 11.7174L50.6011 12.1739H50.228C47.9896 12.1739 46.1582 13.9831 46.1582 16.2319C46.1582 18.4807 47.9727 20.2899 50.228 20.2899H51.5846V38.6522C51.5846 40.1232 51.9238 41.5773 52.5851 42.8792L54.5861 46.8527C55.044 47.7657 55.9936 48.3406 57.0111 48.3406C58.0455 48.3406 58.9782 47.7657 59.436 46.8527L61.437 42.8623C62.0984 41.5435 62.4375 40.1063 62.4375 38.6353V20.2899H63.7941C66.0495 20.2899 67.8639 18.4807 67.8639 16.2319C67.83 13.9831 66.0156 12.1739 63.7602 12.1739ZM53.7891 6.47585C53.6365 5.54589 53.8909 4.58213 54.5183 3.85507C55.1457 3.16184 56.0445 2.77295 56.9941 2.77295C57.9437 2.77295 58.8255 3.16184 59.4699 3.85507C60.0804 4.58213 60.3517 5.52899 60.1991 6.47585C59.8599 8.36957 59.9787 10.314 60.5383 12.1739H53.433C53.9757 10.3309 54.1113 8.36957 53.7891 6.47585ZM59.6904 38.6522C59.6904 39.7005 59.436 40.7319 58.9782 41.6787L56.9772 45.6522L54.9762 41.6787C54.5013 40.7319 54.2639 39.7005 54.2639 38.6522V20.2899H59.6904V38.6522ZM63.7602 17.5845H50.1941C49.448 17.5845 48.8375 16.9758 48.8375 16.2319C48.8375 15.4879 49.448 14.8792 50.1941 14.8792H63.7602C64.5063 14.8792 65.1168 15.4879 65.1168 16.2319C65.1168 16.9758 64.5063 17.5845 63.7602 17.5845Z" fill="#FEA789"/>
<path d="M58.1132 51.6715C57.8419 51.3164 57.4349 51.1135 56.977 51.1135C56.5361 51.1135 56.1122 51.3164 55.8578 51.6715L51.9406 57.5386C50.8045 59.2295 50.2109 61.2077 50.2109 63.2367C50.2109 66.9734 53.2464 70 56.994 70C60.7416 70 63.777 66.9734 63.777 63.2367C63.777 61.2077 63.1835 59.2126 62.0473 57.5386L58.1132 51.6715ZM56.977 67.2947C54.7217 67.2947 52.9072 65.4855 52.9072 63.2367C52.9072 61.7488 53.3481 60.2778 54.179 59.0266L56.977 54.8502L59.775 59.0266C60.606 60.2778 61.0469 61.7319 61.0469 63.2367C61.0469 65.4686 59.2324 67.2947 56.977 67.2947Z" fill="#FEA789"/>
<path d="M8.39398 36.7923L7.35957 38.331C6.10471 40.1909 5.44336 42.389 5.44336 44.6208V45.6522C5.44336 46.3962 6.05383 47.0049 6.79997 47.0049C7.5461 47.0049 8.15658 46.3962 8.15658 45.6522V44.6208C8.15658 42.9131 8.6653 41.2392 9.61493 39.8189L10.6493 38.2803C11.0733 37.6547 10.9037 36.8262 10.2763 36.4034C9.64885 35.9977 8.80097 36.1667 8.39398 36.7923Z" fill="#FEA789"/>
<path d="M6.79997 49.7102C6.05383 49.7102 5.44336 50.3189 5.44336 51.0629V52.4155C5.44336 53.1595 6.05383 53.7682 6.79997 53.7682C7.5461 53.7682 8.15658 53.1595 8.15658 52.4155V51.0629C8.15658 50.3189 7.56306 49.7102 6.79997 49.7102Z" fill="#FEA789"/>
<path d="M23.0785 61.884H20.3652V64.5893H23.0785V61.884Z" fill="#FEA789"/>
<path d="M28.5052 61.884H25.792V64.5893H28.5052V61.884Z" fill="#FEA789"/>
</g>
<defs>
<clipPath id="clip0">
<rect width="68" height="70" fill="white"/>
</clipPath>
</defs>
</svg>
